# xmcd
#
# Track frame offsets:
#	150
#	17707
#	33240
#	46196
#	58410
#	71812
#	85308
#	103987
#	110472
#	124320
#	140641
#	155683
#	171617
#	190971
#
# Disc length: 2708 seconds
#
# Revision: 1
# Processed by: cddbd v1.5.2PL0 Copyright (c) Steve Scherf et al.
# Submitted via: audiograbber 1.83.01
#
DISCID=d60a920e
DTITLE=Janine Bartlett - Echoes Off The Wall
DYEAR=2010
DGENRE=Easy Listening
TTITLE0=African Soul
TTITLE1=Time Heals Everything
TTITLE2=Echoes Off The Wall
TTITLE3=Bottle Of Rum
TTITLE4=Easier To Stray
TTITLE5=It Aint Gonna Be
TTITLE6=Your Soul
TTITLE7=Thinking About You
TTITLE8=Maybe Baby
TTITLE9=Somewhere In Ireland
TTITLE10=Going Places
TTITLE11=What You Are
TTITLE12=The Memory Of You
TTITLE13=My Prayer
EXTD=
EXTT0=
EXTT1=
EXTT2=
EXTT3=
EXTT4=
EXTT5=
EXTT6=
EXTT7=
EXTT8=
EXTT9=
EXTT10=
EXTT11=
EXTT12=
EXTT13=
PLAYORDER=
